<?xml version="1.0" encoding="iso-8859-1"?>
<!-- Generator: Adobe Illustrator 19.0.0, SVG Export Plug-In . SVG Version: 6.00 Build 0)  -->
<svg version="1.1" id="Capa_1" xmlns="http://www.w3.org/2000/svg" xmlns:xlink="http://www.w3.org/1999/xlink" x="0px" y="0px"
	 viewBox="0 0 491.52 491.52" style="enable-background:new 0 0 491.52 491.52;" xml:space="preserve">
<circle style="fill:#EA8953;" cx="245.76" cy="245.76" r="245.76"/>
<path style="opacity:0.1;enable-background:new    ;" d="M491.366,251.867L357.502,118.003c-0.045-0.048-0.092-0.089-0.137-0.137
	l-1.445-1.445l-0.03,0.067c-7.505-7.322-15.956-11.542-24.933-11.542H160.563c-29.491,0-53.606,44.646-55.45,100.915h-0.154v180.685
	l101.875,101.875c12.682,2.019,25.676,3.099,38.925,3.099C379.442,491.52,488.114,384.765,491.366,251.867z"/>
<path style="fill:#E1E6E9;" d="M275.327,212.714v107.753h55.618C300.227,320.467,275.327,272.225,275.327,212.714z"/>
<path style="fill:#EBF0F3;" d="M330.944,104.96L330.944,104.96H160.577c-29.525,0-53.61,44.61-55.438,100.922h-0.179v6.82v0.011l0,0
	v0.012V386.56h170.366v-66.093V212.714C275.327,153.203,300.227,104.96,330.944,104.96z"/>
<path style="fill:#D5D6DB;" d="M330.944,104.96c-30.717,0-55.618,48.243-55.618,107.754s24.9,107.753,55.618,107.753
	c30.715,0,55.616-48.242,55.616-107.753S361.659,104.96,330.944,104.96z M330.944,251.788c-11.139,0-20.168-17.494-20.168-39.074
	c0-21.579,9.029-39.073,20.168-39.073c11.138,0,20.167,17.494,20.167,39.073C351.112,234.294,342.082,251.788,330.944,251.788z"/>
<ellipse style="fill:#64798A;" cx="330.957" cy="212.716" rx="20.168" ry="39.071"/>
<g>
	<rect x="104.96" y="229.366" style="fill:#E1E6E9;" width="5.12" height="3.84"/>
	<rect x="163.456" y="229.366" style="fill:#E1E6E9;" width="10.675" height="3.84"/>
	<rect x="184.781" y="229.366" style="fill:#E1E6E9;" width="10.675" height="3.84"/>
	<rect x="120.755" y="229.366" style="fill:#E1E6E9;" width="10.675" height="3.84"/>
	<rect x="142.106" y="229.366" style="fill:#E1E6E9;" width="10.675" height="3.84"/>
	<rect x="206.131" y="229.366" style="fill:#E1E6E9;" width="10.675" height="3.84"/>
	<rect x="248.852" y="229.366" style="fill:#E1E6E9;" width="10.675" height="3.84"/>
	<rect x="227.482" y="229.366" style="fill:#E1E6E9;" width="10.675" height="3.84"/>
	<rect x="270.208" y="229.366" style="fill:#E1E6E9;" width="5.12" height="3.84"/>
</g>
<g>
</g>
<g>
</g>
<g>
</g>
<g>
</g>
<g>
</g>
<g>
</g>
<g>
</g>
<g>
</g>
<g>
</g>
<g>
</g>
<g>
</g>
<g>
</g>
<g>
</g>
<g>
</g>
<g>
</g>
</svg>
